<svg width="40" height="40" viewBox="0 0 40 40" fill="none" xmlns="http://www.w3.org/2000/svg">
<path d="M20 39.25C17.4009 39.25 14.88 38.7411 12.5073 37.7375C10.2151 36.768 8.15632 35.3799 6.3882 33.6118C4.62007 31.8437 3.23197 29.7849 2.26245 27.4927C1.25886 25.12 0.75 22.5991 0.75 20C0.75 17.4009 1.25886 14.88 2.26245 12.5073C3.23197 10.2151 4.62007 8.15633 6.3882 6.3882C8.15633 4.62007 10.2151 3.23197 12.5073 2.26245C14.88 1.25886 17.4009 0.75 20 0.75C22.5991 0.75 25.12 1.25886 27.4927 2.26245C29.7849 3.23197 31.8437 4.62007 33.6118 6.3882C35.3799 8.15632 36.768 10.2151 37.7375 12.5073C38.7411 14.88 39.25 17.4009 39.25 20C39.25 22.5991 38.7411 25.12 37.7375 27.4927C36.768 29.7849 35.3799 31.8437 33.6118 33.6118C31.8437 35.3799 29.7849 36.768 27.4927 37.7375C25.12 38.7411 22.5991 39.25 20 39.25Z" fill="#FECB2A"/>
<path d="M20 1.5C15.0585 1.5 10.4127 3.42434 6.91852 6.91852C3.42434 10.4127 1.5 15.0585 1.5 20C1.5 24.9415 3.42434 29.5873 6.91852 33.0815C10.4127 36.5757 15.0585 38.5 20 38.5C24.9415 38.5 29.5873 36.5757 33.0815 33.0815C36.5757 29.5873 38.5 24.9415 38.5 20C38.5 15.0585 36.5757 10.4127 33.0815 6.91852C29.5873 3.42434 24.9415 1.5 20 1.5ZM20 0C31.0457 0 40 8.9543 40 20C40 31.0457 31.0457 40 20 40C8.9543 40 0 31.0457 0 20C0 8.9543 8.9543 0 20 0Z" fill="#3F454E"/>
<path d="M28.016 20.802H12.521C12.4381 20.8021 12.3561 20.8196 12.2804 20.8535C12.2047 20.8873 12.137 20.9368 12.0817 20.9986C12.0264 21.0604 11.9847 21.1332 11.9595 21.2122C11.9342 21.2911 11.9259 21.3746 11.935 21.457C12.0199 22.2495 12.2533 23.0189 12.623 23.725L20.271 25.2L27.909 23.725C28.2786 23.0189 28.512 22.2495 28.597 21.457C28.6061 21.375 28.5979 21.292 28.5729 21.2133C28.5479 21.1347 28.5067 21.0622 28.452 21.0005C28.3972 20.9387 28.3301 20.8892 28.255 20.855C28.1799 20.8208 28.0985 20.8028 28.016 20.802Z" fill="#FFF4F4"/>
<path d="M28.013 20.802H20.265V25.202H20.27L27.908 23.727C28.2777 23.0209 28.5111 22.2515 28.596 21.459C28.6051 21.3766 28.5968 21.2931 28.5715 21.2141C28.5463 21.1352 28.5046 21.0624 28.4493 21.0006C28.394 20.9388 28.3263 20.8893 28.2506 20.8555C28.1749 20.8216 28.0929 20.804 28.01 20.804L28.013 20.802Z" fill="#F1E1DB"/>
<path d="M12.624 23.725C13.4301 25.0268 14.5552 26.1012 15.8929 26.8463C17.2306 27.5914 18.7364 27.9825 20.2675 27.9825C21.7987 27.9825 23.3045 27.5914 24.6421 26.8463C25.9798 26.1012 27.105 25.0268 27.911 23.725H12.624Z" fill="#3F454E"/>
<path d="M20.265 27.982C21.8048 28.0297 23.3288 27.659 24.6746 26.9094C26.0205 26.1597 27.1379 25.0592 27.908 23.725H20.265V27.982Z" fill="#30343B"/>
<path d="M26.7 11.1329L22.233 13.9849L26.7 16.5299" stroke="#3F454E" stroke-width="1.5" stroke-linecap="round" stroke-linejoin="round"/>
<path d="M13.222 16.5289L17.689 13.6769L13.222 11.1319" stroke="#3F454E" stroke-width="1.5" stroke-linecap="round" stroke-linejoin="round"/>
</svg>
