<svg width="40" height="40" viewBox="0 0 40 40" fill="none" xmlns="http://www.w3.org/2000/svg">
<path d="M20 39.25C17.4009 39.25 14.88 38.7411 12.5073 37.7375C10.2151 36.768 8.15632 35.3799 6.3882 33.6118C4.62007 31.8437 3.23197 29.7849 2.26245 27.4927C1.25886 25.12 0.75 22.5991 0.75 20C0.75 17.4009 1.25886 14.88 2.26245 12.5073C3.23197 10.2151 4.62007 8.15633 6.3882 6.3882C8.15633 4.62007 10.2151 3.23197 12.5073 2.26245C14.88 1.25886 17.4009 0.75 20 0.75C22.5991 0.75 25.12 1.25886 27.4927 2.26245C29.7849 3.23197 31.8437 4.62007 33.6118 6.3882C35.3799 8.15632 36.768 10.2151 37.7375 12.5073C38.7411 14.88 39.25 17.4009 39.25 20C39.25 22.5991 38.7411 25.12 37.7375 27.4927C36.768 29.7849 35.3799 31.8437 33.6118 33.6118C31.8437 35.3799 29.7849 36.768 27.4927 37.7375C25.12 38.7411 22.5991 39.25 20 39.25Z" fill="#38B3E0"/>
<path d="M20 1.5C15.0585 1.5 10.4127 3.42434 6.91852 6.91852C3.42434 10.4127 1.5 15.0585 1.5 20C1.5 24.9415 3.42434 29.5873 6.91852 33.0815C10.4127 36.5757 15.0585 38.5 20 38.5C24.9415 38.5 29.5873 36.5757 33.0815 33.0815C36.5757 29.5873 38.5 24.9415 38.5 20C38.5 15.0585 36.5757 10.4127 33.0815 6.91852C29.5873 3.42434 24.9415 1.5 20 1.5ZM20 0C31.0457 0 40 8.9543 40 20C40 31.0457 31.0457 40 20 40C8.9543 40 0 31.0457 0 20C0 8.9543 8.9543 0 20 0Z" fill="#3F454E"/>
<path d="M28.301 11.352C27.9652 11.0819 27.5394 10.9494 27.1096 10.9814C26.6798 11.0133 26.2782 11.2073 25.986 11.524L25.742 11.776L25.497 11.524C25.2048 11.2073 24.8032 11.0133 24.3735 10.9814C23.9437 10.9494 23.5178 11.0819 23.182 11.352C22.9992 11.5099 22.8505 11.7032 22.7448 11.9204C22.639 12.1375 22.5786 12.3739 22.5671 12.6151C22.5556 12.8563 22.5933 13.0974 22.6778 13.3236C22.7624 13.5498 22.8921 13.7565 23.059 13.931L25.459 16.41C25.4953 16.4479 25.539 16.4781 25.5872 16.4988C25.6355 16.5194 25.6875 16.53 25.74 16.53C25.7925 16.53 25.8445 16.5194 25.8928 16.4988C25.9411 16.4781 25.9847 16.4479 26.021 16.41L28.421 13.931C28.5881 13.7566 28.718 13.55 28.8028 13.3238C28.8875 13.0977 28.9253 12.8566 28.9139 12.6153C28.9025 12.374 28.8421 12.1376 28.7364 11.9204C28.6307 11.7032 28.4819 11.5098 28.299 11.352H28.301Z" fill="#FFF4F4"/>
<path d="M17.301 11.352C16.9652 11.0819 16.5394 10.9494 16.1096 10.9814C15.6798 11.0133 15.2782 11.2073 14.986 11.524L14.742 11.776L14.497 11.524C14.2048 11.2073 13.8032 11.0133 13.3735 10.9814C12.9437 10.9494 12.5178 11.0819 12.182 11.352C11.9992 11.5099 11.8505 11.7032 11.7448 11.9204C11.639 12.1375 11.5786 12.3739 11.5671 12.6151C11.5556 12.8563 11.5933 13.0974 11.6778 13.3236C11.7624 13.5498 11.8921 13.7565 12.059 13.931L14.459 16.41C14.4953 16.4479 14.539 16.4781 14.5872 16.4988C14.6355 16.5194 14.6875 16.53 14.74 16.53C14.7925 16.53 14.8445 16.5194 14.8928 16.4988C14.9411 16.4781 14.9847 16.4479 15.021 16.41L17.421 13.931C17.5881 13.7566 17.718 13.55 17.8028 13.3238C17.8875 13.0977 17.9253 12.8566 17.9139 12.6153C17.9025 12.374 17.8421 12.1376 17.7364 11.9204C17.6307 11.7032 17.4819 11.5098 17.299 11.352H17.301Z" fill="#FFF4F4"/>
<path d="M20.789 31C19.7724 31.0229 18.76 30.8631 17.8 30.528C16.677 30.016 16 29.771 16 28.836V21.227C16.0373 20.0701 16.5321 18.9753 17.3758 18.1828C18.2195 17.3904 19.343 16.965 20.5 17C21.657 16.965 22.7805 17.3904 23.6242 18.1828C24.4679 18.9753 24.9627 20.0701 25 21.227V28.836C25 29.771 24.326 30.016 23.2 30.527C22.4581 30.8375 21.6622 30.9982 20.858 31H20.789Z" fill="#3F454E"/>
<path d="M20.788 30.999C19.7718 31.022 18.7598 30.8625 17.8 30.528C16.677 30.016 16 29.772 16 28.836V28.589C16.1754 28.3918 16.3873 28.2305 16.624 28.114C17.1703 27.8656 17.7677 27.7499 18.3672 27.7763C18.9668 27.8027 19.5516 27.9705 20.074 28.266L20.438 28.492L20.8 28.266C21.3225 27.9702 21.9075 27.8023 22.5073 27.7759C23.107 27.7495 23.7046 27.8653 24.251 28.114C24.5539 28.2571 24.8126 28.4793 25 28.757V28.836C25 29.772 24.325 30.016 23.2 30.528C22.4587 30.8379 21.6635 30.9983 20.86 31L20.788 30.999Z" fill="#FFF4F4"/>
</svg>
