<svg width="40" height="40" viewBox="0 0 40 40" fill="none" xmlns="http://www.w3.org/2000/svg">
<path d="M20 39.25C17.4009 39.25 14.88 38.7411 12.5073 37.7375C10.2151 36.768 8.15632 35.3799 6.3882 33.6118C4.62007 31.8437 3.23197 29.7849 2.26245 27.4927C1.25886 25.12 0.75 22.5991 0.75 20C0.75 17.4009 1.25886 14.88 2.26245 12.5073C3.23197 10.2151 4.62007 8.15633 6.3882 6.3882C8.15633 4.62007 10.2151 3.23197 12.5073 2.26245C14.88 1.25886 17.4009 0.75 20 0.75C22.5991 0.75 25.12 1.25886 27.4927 2.26245C29.7849 3.23197 31.8437 4.62007 33.6118 6.3882C35.3799 8.15632 36.768 10.2151 37.7375 12.5073C38.7411 14.88 39.25 17.4009 39.25 20C39.25 22.5991 38.7411 25.12 37.7375 27.4927C36.768 29.7849 35.3799 31.8437 33.6118 33.6118C31.8437 35.3799 29.7849 36.768 27.4927 37.7375C25.12 38.7411 22.5991 39.25 20 39.25Z" fill="#D57DA5"/>
<path d="M20 1.5C15.0585 1.5 10.4127 3.42434 6.91852 6.91852C3.42434 10.4127 1.5 15.0585 1.5 20C1.5 24.9415 3.42434 29.5873 6.91852 33.0815C10.4127 36.5757 15.0585 38.5 20 38.5C24.9415 38.5 29.5873 36.5757 33.0815 33.0815C36.5757 29.5873 38.5 24.9415 38.5 20C38.5 15.0585 36.5757 10.4127 33.0815 6.91852C29.5873 3.42434 24.9415 1.5 20 1.5ZM20 0C31.0457 0 40 8.9543 40 20C40 31.0457 31.0457 40 20 40C8.9543 40 0 31.0457 0 20C0 8.9543 8.9543 0 20 0Z" fill="#3F454E"/>
<path d="M17.265 16.158C17.156 16.158 17.0481 16.1365 16.9474 16.0948C16.8467 16.0531 16.7552 15.9919 16.6781 15.9149C16.6011 15.8378 16.5399 15.7463 16.4982 15.6456C16.4565 15.5449 16.435 15.437 16.435 15.328C16.435 15.0097 16.3086 14.7045 16.0835 14.4794C15.8585 14.2544 15.5533 14.128 15.235 14.128C14.9168 14.128 14.6115 14.2544 14.3865 14.4794C14.1614 14.7045 14.035 15.0097 14.035 15.328C14.035 15.5482 13.9475 15.7595 13.7918 15.9152C13.636 16.071 13.4248 16.1585 13.2045 16.1585C12.9843 16.1585 12.773 16.071 12.6173 15.9152C12.4615 15.7595 12.374 15.5482 12.374 15.328C12.374 14.5699 12.6752 13.8428 13.2113 13.3067C13.7473 12.7706 14.4744 12.4695 15.2325 12.4695C15.9906 12.4695 16.7177 12.7706 17.2538 13.3067C17.7899 13.8428 18.091 14.5699 18.091 15.328C18.091 15.5474 18.0041 15.7579 17.8493 15.9135C17.6945 16.069 17.4845 16.1569 17.265 16.158Z" fill="#3F454E"/>
<path d="M27.247 16.158C27.0269 16.158 26.8158 16.0705 26.6601 15.9149C26.5045 15.7592 26.417 15.5481 26.417 15.328C26.417 15.0097 26.2906 14.7045 26.0656 14.4794C25.8405 14.2544 25.5353 14.128 25.217 14.128C24.8988 14.128 24.5935 14.2544 24.3685 14.4794C24.1435 14.7045 24.017 15.0097 24.017 15.328C24.017 15.5482 23.9295 15.7595 23.7738 15.9152C23.618 16.071 23.4068 16.1585 23.1865 16.1585C22.9663 16.1585 22.755 16.071 22.5993 15.9152C22.4435 15.7595 22.356 15.5482 22.356 15.328C22.356 14.5699 22.6572 13.8428 23.1933 13.3067C23.7293 12.7706 24.4564 12.4695 25.2145 12.4695C25.9727 12.4695 26.6997 12.7706 27.2358 13.3067C27.7719 13.8428 28.073 14.5699 28.073 15.328C28.073 15.5474 27.9861 15.7579 27.8313 15.9135C27.6765 16.069 27.4665 16.1569 27.247 16.158Z" fill="#3F454E"/>
<path d="M11.828 22.079L12.834 18.434C12.8673 18.3133 12.8685 18.1861 12.8374 18.0649C12.8063 17.9437 12.744 17.8327 12.6568 17.7431C12.5695 17.6534 12.4603 17.5881 12.34 17.5537C12.2197 17.5193 12.0925 17.517 11.971 17.547L8.262 18.464C7.76953 18.5651 7.31754 18.8085 6.962 19.164C6.41358 19.7166 6.10649 20.4641 6.10798 21.2426C6.10947 22.0212 6.41942 22.7675 6.96996 23.318C7.52049 23.8685 8.26676 24.1785 9.04534 24.18C9.82391 24.1815 10.5714 23.8744 11.124 23.326C11.4681 22.9824 11.7116 22.5511 11.828 22.079Z" fill="#9BFCFF"/>
<path d="M12.834 18.435C12.8674 18.3144 12.8686 18.1871 12.8375 18.0659C12.8065 17.9447 12.7442 17.8337 12.657 17.744C12.6387 17.7252 12.6193 17.7075 12.599 17.691L6.96399 23.326C7.51643 23.8769 8.26479 24.1863 9.04499 24.1863C9.82519 24.1863 10.5736 23.8769 11.126 23.326C11.4683 22.9828 11.7103 22.5527 11.826 22.082L12.834 18.435Z" fill="#00FAFF"/>
<path d="M28.686 22.1049L27.674 18.4369C27.6405 18.3156 27.6393 18.1877 27.6706 18.0658C27.7018 17.9438 27.7645 17.8322 27.8522 17.742C27.94 17.6518 28.0498 17.5862 28.1709 17.5516C28.2919 17.517 28.4198 17.5147 28.542 17.5449L32.272 18.4669C32.7642 18.5689 33.216 18.8121 33.572 19.1669C33.8495 19.4412 34.0701 19.7676 34.221 20.1275C34.3719 20.4873 34.4501 20.8734 34.4513 21.2635C34.4524 21.6537 34.3764 22.0403 34.2276 22.401C34.0788 22.7617 33.8602 23.0894 33.5843 23.3653C33.3084 23.6412 32.9807 23.8598 32.62 24.0086C32.2593 24.1573 31.8728 24.2334 31.4826 24.2322C31.0924 24.2311 30.7063 24.1528 30.3465 24.0019C29.9867 23.851 29.6603 23.6305 29.386 23.3529C29.0438 23.0082 28.8018 22.5767 28.686 22.1049Z" fill="#00FAFF"/>
<path d="M27.674 18.4369C27.6404 18.3156 27.6392 18.1876 27.6704 18.0657C27.7017 17.9438 27.7643 17.8321 27.852 17.7419C27.8703 17.7231 27.8897 17.7055 27.91 17.6889L33.577 23.3549C33.0215 23.9093 32.2688 24.2206 31.484 24.2206C30.6992 24.2206 29.9465 23.9093 29.391 23.3549C29.0464 23.0099 28.8026 22.5773 28.686 22.1039L27.674 18.4369Z" fill="#17CDF5"/>
<path d="M28.016 20.802H12.521C12.4381 20.8021 12.3561 20.8196 12.2804 20.8535C12.2047 20.8873 12.137 20.9368 12.0817 20.9986C12.0264 21.0604 11.9847 21.1332 11.9595 21.2122C11.9342 21.2911 11.9259 21.3746 11.935 21.457C12.0199 22.2495 12.2533 23.0189 12.623 23.725L20.271 25.2L27.909 23.725C28.2786 23.0189 28.512 22.2495 28.597 21.457C28.6061 21.375 28.5979 21.292 28.5729 21.2133C28.5479 21.1347 28.5067 21.0622 28.452 21.0005C28.3972 20.9387 28.3301 20.8892 28.255 20.855C28.1799 20.8208 28.0985 20.8028 28.016 20.802Z" fill="#FFF4F4"/>
<path d="M28.013 20.802H20.265V25.202H20.27L27.908 23.727C28.2777 23.0209 28.5111 22.2515 28.596 21.459C28.6051 21.3766 28.5968 21.2931 28.5715 21.2141C28.5463 21.1352 28.5046 21.0624 28.4493 21.0006C28.394 20.9388 28.3263 20.8893 28.2506 20.8555C28.1749 20.8216 28.0929 20.804 28.01 20.804L28.013 20.802Z" fill="#F1E1DB"/>
<path d="M12.624 23.725C13.4301 25.0268 14.5552 26.1012 15.8929 26.8463C17.2306 27.5914 18.7364 27.9825 20.2675 27.9825C21.7987 27.9825 23.3045 27.5914 24.6421 26.8463C25.9798 26.1012 27.105 25.0268 27.911 23.725H12.624Z" fill="#3F454E"/>
<path d="M20.265 27.982C21.8048 28.0297 23.3288 27.659 24.6746 26.9094C26.0205 26.1597 27.1379 25.0592 27.908 23.725H20.265V27.982Z" fill="#30343B"/>
</svg>
