<svg width="14" height="13" viewBox="0 0 14 13" fill="none" xmlns="http://www.w3.org/2000/svg">
<path d="M13.551 3.70405V11.3271C13.5507 11.6638 13.4168 11.9867 13.1787 12.2248C12.9406 12.4629 12.6177 12.5968 12.281 12.5971H1.27C0.933256 12.5968 0.610381 12.4629 0.372267 12.2248C0.134153 11.9867 0.00026484 11.6638 0 11.3271L0 3.70405C0.00026484 3.36731 0.134153 3.04443 0.372267 2.80632C0.610381 2.5682 0.933256 2.43432 1.27 2.43405H3.6L3.926 1.56305C4.01676 1.32129 4.17912 1.11297 4.3914 0.965911C4.60367 0.818854 4.85576 0.74006 5.114 0.740051H8.435C8.69324 0.74006 8.94533 0.818854 9.1576 0.965911C9.36988 1.11297 9.53224 1.32129 9.623 1.56305L9.951 2.43405H12.28C12.6169 2.43405 12.94 2.56782 13.1784 2.80596C13.4167 3.04411 13.5507 3.36713 13.551 3.70405ZM9.951 7.51505C9.9512 6.88681 9.76507 6.27263 9.41616 5.75018C9.06726 5.22774 8.57124 4.82051 7.99086 4.58C7.41049 4.33949 6.77182 4.27651 6.15564 4.39903C5.53946 4.52154 4.97346 4.82405 4.52923 5.26828C4.085 5.71251 3.78249 6.27851 3.65998 6.89469C3.53746 7.51087 3.60044 8.14954 3.84095 8.72992C4.08146 9.31029 4.48869 9.80631 5.01113 10.1552C5.53358 10.5041 6.14776 10.6902 6.776 10.6901C7.61774 10.6893 8.4248 10.3547 9.02019 9.75965C9.61557 9.16464 9.95068 8.35779 9.952 7.51605L9.951 7.51505ZM9.104 7.51505C9.10479 7.9759 8.96885 8.42662 8.71337 8.81017C8.45789 9.19372 8.09437 9.49285 7.66881 9.66971C7.24326 9.84657 6.7748 9.89321 6.32272 9.80371C5.87065 9.71422 5.45529 9.49262 5.12921 9.16696C4.80314 8.84131 4.581 8.42623 4.49093 7.97428C4.40085 7.52232 4.44688 7.0538 4.62319 6.62801C4.7995 6.20223 5.09817 5.83832 5.48139 5.58235C5.86461 5.32638 6.31515 5.18985 6.776 5.19005C7.39198 5.19242 7.98202 5.43831 8.4174 5.87406C8.85278 6.30982 9.09816 6.90007 9.1 7.51605L9.104 7.51505Z" fill="#38B3E0"/>
</svg>
