<svg width="80" height="80" viewBox="0 0 80 80" fill="none" xmlns="http://www.w3.org/2000/svg">
<path d="M40 80C62.0914 80 80 62.0914 80 40C80 17.9086 62.0914 0 40 0C17.9086 0 0 17.9086 0 40C0 62.0914 17.9086 80 40 80Z" fill="#38B3E0"/>
<path d="M40 79C61.5391 79 79 61.5391 79 40C79 18.4609 61.5391 1 40 1C18.4609 1 1 18.4609 1 40C1 61.5391 18.4609 79 40 79Z" stroke="#3F454E" stroke-width="2"/>
<path d="M39.343 37.592C40.2659 37.5755 41.1633 37.2867 41.9227 36.7619C42.682 36.2371 43.2694 35.4997 43.6111 34.6422C43.9528 33.7848 44.0336 32.8455 43.8434 31.9423C43.6532 31.039 43.2004 30.2121 42.5419 29.5653C41.8833 28.9185 41.0484 28.4807 40.1419 28.3067C39.2354 28.1328 38.2977 28.2305 37.4466 28.5876C36.5954 28.9446 35.8687 29.5452 35.3576 30.3139C34.8466 31.0825 34.5739 31.985 34.574 32.908C34.589 34.1604 35.099 35.3559 35.9925 36.2335C36.8861 37.1111 38.0906 37.5995 39.343 37.592ZM39.343 41.027C35.607 41.027 28.214 42.827 28.214 46.492V52.909H50.698V46.493C50.698 42.823 43.079 41.028 39.343 41.028V41.027Z" fill="white" fill-opacity="0.81"/>
<path d="M27.129 39.813C28.0519 39.7965 28.9493 39.5077 29.7087 38.9829C30.468 38.4581 31.0554 37.7207 31.3971 36.8632C31.7388 36.0058 31.8197 35.0665 31.6294 34.1633C31.4392 33.26 30.9864 32.4331 30.3279 31.7863C29.6693 31.1395 28.8344 30.7017 27.9279 30.5277C27.0214 30.3538 26.0837 30.4515 25.2326 30.8086C24.3814 31.1656 23.6547 31.7662 23.1436 32.5349C22.6326 33.3035 22.36 34.206 22.36 35.129C22.375 36.3814 22.885 37.5769 23.7785 38.4545C24.6721 39.3321 25.8766 39.8205 27.129 39.813ZM27.129 43.248C23.393 43.248 16 45.048 16 48.713V52.929H38.484V48.714C38.484 45.044 30.865 43.249 27.129 43.249V43.248Z" fill="white"/>
<path d="M52.667 39.813C53.5899 39.7965 54.4873 39.5077 55.2466 38.9829C56.006 38.4581 56.5934 37.7207 56.9351 36.8632C57.2768 36.0058 57.3576 35.0665 57.1674 34.1633C56.9772 33.26 56.5244 32.4331 55.8658 31.7863C55.2073 31.1395 54.3724 30.7017 53.4659 30.5277C52.5594 30.3538 51.6217 30.4515 50.7705 30.8086C49.9194 31.1656 49.1926 31.7662 48.6816 32.5349C48.1705 33.3035 47.8979 34.206 47.898 35.129C47.913 36.3814 48.423 37.5769 49.3165 38.4545C50.21 39.3321 51.4145 39.8205 52.667 39.813ZM52.667 43.248C48.931 43.248 41.538 45.048 41.538 48.713V52.929H64.022V48.714C64.022 45.044 56.403 43.249 52.667 43.249V43.248Z" fill="white"/>
</svg>
