<svg width="14" height="15" viewBox="0 0 14 15" fill="none" xmlns="http://www.w3.org/2000/svg">
<path d="M7.00002 14.136C6.60403 14.136 6.29802 14.028 6.08202 13.812C5.86602 13.578 5.75802 13.263 5.75802 12.867V8.439H1.41102C1.03302 8.439 0.736025 8.34 0.520024 8.142C0.304024 7.926 0.196024 7.629 0.196024 7.251C0.196024 6.873 0.304024 6.585 0.520024 6.387C0.736025 6.171 1.03302 6.063 1.41102 6.063H5.75802V1.77C5.75802 1.374 5.86602 1.068 6.08202 0.851999C6.29802 0.635999 6.61303 0.528 7.02703 0.528C7.42302 0.528 7.72002 0.635999 7.91802 0.851999C8.13402 1.068 8.24202 1.374 8.24202 1.77V6.063H12.589C12.985 6.063 13.282 6.171 13.48 6.387C13.696 6.585 13.804 6.873 13.804 7.251C13.804 7.629 13.696 7.926 13.48 8.142C13.282 8.34 12.985 8.439 12.589 8.439H8.24202V12.867C8.24202 13.263 8.13402 13.578 7.91802 13.812C7.72002 14.028 7.41402 14.136 7.00002 14.136Z" fill="white"/>
</svg>
