<svg width="11" height="11" viewBox="0 0 11 11" fill="none" xmlns="http://www.w3.org/2000/svg">
<path d="M5.52498 0.419067C4.53117 0.419265 3.55974 0.714144 2.73351 1.26642C1.90729 1.81869 1.26337 2.60356 0.883197 3.52178C0.50302 4.43999 0.403651 5.45032 0.597655 6.42501C0.791658 7.3997 1.27032 8.29497 1.97312 8.99763C2.67592 9.70029 3.57129 10.1788 4.54602 10.3726C5.52074 10.5664 6.53105 10.4668 7.44919 10.0865C8.36733 9.70611 9.15207 9.06204 9.70418 8.2357C10.2563 7.40937 10.551 6.43788 10.551 5.44407C10.547 4.1124 10.0162 2.83642 9.07446 1.89488C8.13274 0.953333 6.85665 0.422761 5.52498 0.419067ZM6.10498 7.95707H4.94498V6.99107H6.10498V7.95707ZM6.10498 5.83107H4.94498V2.73807H6.10498V5.83107Z" fill="#FB443B"/>
</svg>
