<svg width="375" height="813" viewBox="0 0 375 813" fill="none" xmlns="http://www.w3.org/2000/svg">
<g opacity="0.311">
<path opacity="0.432" d="M148.002 371.06C146.719 371.801 145.653 372.867 144.913 374.151L102.982 446.826C102.241 448.11 101.851 449.567 101.851 451.05C101.851 452.533 102.241 453.991 102.982 455.276L144.905 527.998C145.646 529.283 146.712 530.35 147.995 531.092L203.649 448.559L148.002 371.06Z" fill="#B9E4EF"/>
<path opacity="0.432" d="M196.82 446.397L147.973 531.059C149.256 531.802 150.711 532.193 152.193 532.194L236.048 532.242C237.53 532.243 238.986 531.853 240.269 531.112C241.552 530.371 242.618 529.305 243.359 528.021L285.289 455.347C286.03 454.063 286.421 452.606 286.421 451.123L196.82 446.397Z" fill="#93D8E4"/>
<path opacity="0.432" d="M286.425 451.133C286.425 449.65 286.035 448.193 285.293 446.908L243.375 374.195C242.635 372.911 241.569 371.844 240.287 371.101C239.004 370.359 237.548 369.968 236.067 369.967L152.224 369.919C150.743 369.918 149.287 370.307 148.005 371.048L194.142 451.08L286.425 451.133Z" fill="#DAF1F4"/>
</g>
<g opacity="0.311">
<path opacity="0.432" d="M-53.9981 776.559C-55.2814 777.299 -56.347 778.366 -57.0875 779.65L-99.018 852.325C-99.7589 853.609 -100.149 855.066 -100.149 856.549C-100.149 858.032 -99.759 859.489 -99.0181 860.774L-57.0946 933.496C-56.3538 934.781 -55.2882 935.849 -54.0048 936.591L1.6491 854.058L-53.9981 776.559Z" fill="#B9E4EF"/>
<path opacity="0.432" d="M84.4245 856.632C84.4246 855.149 84.0344 853.692 83.2933 852.407L41.3752 779.694C40.6345 778.409 39.5692 777.342 38.2864 776.6C37.0035 775.858 35.5483 775.467 34.067 775.466L-49.7762 775.418C-51.2576 775.416 -52.7129 775.806 -53.9956 776.547L-7.85778 856.578L84.4245 856.632Z" fill="#DAF1F4"/>
</g>
<g opacity="0.311">
<path opacity="0.432" d="M148.002 618.364C146.719 619.105 145.653 620.171 144.912 621.455L102.982 694.13C102.241 695.414 101.851 696.871 101.851 698.354C101.851 699.837 102.241 701.295 102.982 702.58L144.905 775.302C145.646 776.587 146.712 777.654 147.995 778.396L203.649 695.863L148.002 618.364Z" fill="#B9E4EF"/>
<path opacity="0.432" d="M196.82 693.701L147.973 778.363C149.256 779.106 150.711 779.497 152.193 779.498L236.048 779.546C237.53 779.547 238.985 779.157 240.269 778.416C241.552 777.675 242.618 776.609 243.358 775.325L285.289 702.651C286.03 701.367 286.421 699.91 286.42 698.427L196.82 693.701Z" fill="#93D8E4"/>
<path opacity="0.432" d="M286.425 698.437C286.425 696.954 286.034 695.497 285.293 694.212L243.375 621.499C242.635 620.215 241.569 619.148 240.286 618.405C239.004 617.663 237.548 617.272 236.067 617.271L152.224 617.223C150.742 617.222 149.287 617.611 148.004 618.352L194.142 698.384L286.425 698.437Z" fill="#DAF1F4"/>
</g>
<g opacity="0.311">
<path opacity="0.432" d="M361.002 767.548C359.719 768.288 358.653 769.355 357.912 770.639L315.982 843.313C315.241 844.598 314.851 846.054 314.851 847.538C314.851 849.021 315.241 850.478 315.982 851.763L357.905 924.485C358.646 925.77 359.712 926.838 360.995 927.58L416.649 845.047L361.002 767.548Z" fill="#B9E4EF"/>
<path opacity="0.432" d="M409.82 842.884L360.973 927.547C362.256 928.289 363.711 928.681 365.193 928.682L449.048 928.729C450.53 928.73 451.985 928.341 453.269 927.6C454.552 926.859 455.618 925.793 456.358 924.509L498.289 851.835C499.03 850.551 499.421 849.094 499.42 847.61L409.82 842.884Z" fill="#93D8E4"/>
<path opacity="0.432" d="M499.425 847.621C499.425 846.138 499.034 844.681 498.293 843.396L456.375 770.683C455.635 769.398 454.569 768.331 453.286 767.589C452.004 766.847 450.548 766.456 449.067 766.455L365.224 766.406C363.742 766.405 362.287 766.795 361.004 767.536L407.142 847.567L499.425 847.621Z" fill="#DAF1F4"/>
</g>
<g opacity="0.311">
<path opacity="0.432" d="M-53.9981 529.254C-55.2814 529.995 -56.347 531.062 -57.0875 532.346L-99.018 605.02C-99.7589 606.304 -100.149 607.761 -100.149 609.245C-100.149 610.728 -99.759 612.185 -99.0181 613.47L-57.0946 686.192C-56.3538 687.477 -55.2882 688.544 -54.0048 689.287L1.6491 606.754L-53.9981 529.254Z" fill="#B9E4EF"/>
<path opacity="0.432" d="M-5.18004 604.591L-54.0273 689.254C-52.7442 689.996 -51.2887 690.388 -49.8069 690.389L34.0481 690.436C35.5298 690.437 36.9854 690.048 38.2687 689.307C39.5519 688.566 40.6175 687.5 41.3584 686.216L83.289 613.542C84.0303 612.258 84.4205 610.801 84.4205 609.317L-5.18004 604.591Z" fill="#93D8E4"/>
<path opacity="0.432" d="M84.4245 609.328C84.4246 607.845 84.0344 606.387 83.2933 605.103L41.3752 532.39C40.6345 531.105 39.5692 530.038 38.2864 529.296C37.0035 528.554 35.5483 528.162 34.067 528.162L-49.7762 528.113C-51.2576 528.112 -52.7129 528.502 -53.9956 529.243L-7.85778 609.274L84.4245 609.328Z" fill="#DAF1F4"/>
</g>
<g opacity="0.311">
<path opacity="0.432" d="M361.002 520.243C359.719 520.984 358.653 522.05 357.912 523.335L315.982 596.009C315.241 597.293 314.851 598.75 314.851 600.234C314.851 601.717 315.241 603.174 315.982 604.459L357.905 677.181C358.646 678.466 359.712 679.533 360.995 680.276L416.649 597.743L361.002 520.243Z" fill="#B9E4EF"/>
<path opacity="0.432" d="M409.82 595.58L360.973 680.243C362.256 680.985 363.711 681.377 365.193 681.378L449.048 681.425C450.53 681.426 451.985 681.037 453.269 680.296C454.552 679.555 455.618 678.489 456.358 677.205L498.289 604.53C499.03 603.246 499.421 601.79 499.42 600.306L409.82 595.58Z" fill="#93D8E4"/>
<path opacity="0.432" d="M499.425 600.317C499.425 598.834 499.034 597.376 498.293 596.092L456.375 523.379C455.635 522.094 454.569 521.027 453.286 520.285C452.004 519.543 450.548 519.151 449.067 519.15L365.224 519.102C363.742 519.101 362.287 519.49 361.004 520.232L407.142 600.263L499.425 600.317Z" fill="#DAF1F4"/>
</g>
<g opacity="0.311">
<path opacity="0.432" d="M-53.9981 281.95C-55.2814 282.691 -56.347 283.757 -57.0875 285.042L-99.018 357.716C-99.7589 359 -100.149 360.457 -100.149 361.94C-100.149 363.424 -99.759 364.881 -99.0181 366.166L-57.0946 438.888C-56.3538 440.173 -55.2882 441.24 -54.0048 441.982L1.6491 359.45L-53.9981 281.95Z" fill="#B9E4EF"/>
<path opacity="0.432" d="M-5.18004 357.287L-54.0273 441.95C-52.7442 442.692 -51.2887 443.084 -49.8069 443.084L34.0481 443.132C35.5298 443.133 36.9854 442.744 38.2687 442.003C39.5519 441.262 40.6175 440.196 41.3584 438.912L83.289 366.237C84.0303 364.953 84.4205 363.496 84.4205 362.013L-5.18004 357.287Z" fill="#93D8E4"/>
<path opacity="0.432" d="M84.4245 362.024C84.4246 360.541 84.0344 359.083 83.2933 357.799L41.3752 285.086C40.6345 283.801 39.5692 282.734 38.2864 281.992C37.0035 281.25 35.5483 280.858 34.067 280.857L-49.7762 280.809C-51.2576 280.808 -52.7129 281.197 -53.9956 281.939L-7.85778 361.97L84.4245 362.024Z" fill="#DAF1F4"/>
</g>
<g opacity="0.311">
<path opacity="0.432" d="M148.002 123.756C146.719 124.497 145.653 125.563 144.913 126.847L102.982 199.522C102.241 200.806 101.851 202.263 101.851 203.746C101.851 205.229 102.241 206.687 102.982 207.971L144.905 280.693C145.646 281.978 146.712 283.046 147.995 283.788L203.649 201.255L148.002 123.756Z" fill="#B9E4EF"/>
<path opacity="0.432" d="M196.82 199.093L147.973 283.755C149.256 284.497 150.711 284.889 152.193 284.89L236.048 284.938C237.53 284.939 238.986 284.549 240.269 283.808C241.552 283.067 242.618 282.001 243.359 280.717L285.289 208.043C286.03 206.759 286.421 205.302 286.421 203.819L196.82 199.093Z" fill="#93D8E4"/>
<path opacity="0.432" d="M286.425 203.829C286.425 202.346 286.035 200.889 285.293 199.604L243.375 126.891C242.635 125.606 241.569 124.539 240.287 123.797C239.004 123.055 237.548 122.664 236.067 122.663L152.224 122.615C150.743 122.613 149.287 123.003 148.005 123.744L194.142 203.775L286.425 203.829Z" fill="#DAF1F4"/>
</g>
<g opacity="0.311">
<path opacity="0.432" d="M361.002 272.939C359.719 273.68 358.653 274.746 357.912 276.031L315.982 348.705C315.241 349.989 314.851 351.446 314.851 352.929C314.851 354.413 315.241 355.87 315.982 357.155L357.905 429.877C358.646 431.162 359.712 432.229 360.995 432.971L416.649 350.439L361.002 272.939Z" fill="#B9E4EF"/>
<path opacity="0.432" d="M409.82 348.276L360.973 432.938C362.256 433.681 363.711 434.072 365.193 434.073L449.048 434.121C450.53 434.122 451.985 433.732 453.269 432.992C454.552 432.251 455.618 431.185 456.358 429.901L498.289 357.226C499.03 355.942 499.421 354.485 499.42 353.002L409.82 348.276Z" fill="#93D8E4"/>
<path opacity="0.432" d="M499.425 353.013C499.425 351.529 499.034 350.072 498.293 348.788L456.375 276.075C455.635 274.79 454.569 273.723 453.286 272.981C452.004 272.239 450.548 271.847 449.067 271.846L365.224 271.798C363.742 271.797 362.287 272.186 361.004 272.927L407.142 352.959L499.425 353.013Z" fill="#DAF1F4"/>
</g>
<g opacity="0.311">
<path opacity="0.432" d="M-53.9981 34.6461C-55.2814 35.3869 -56.347 36.4532 -57.0875 37.7376L-99.018 110.412C-99.7589 111.696 -100.149 113.153 -100.149 114.636C-100.149 116.12 -99.759 117.577 -99.0181 118.862L-57.0946 191.584C-56.3538 192.869 -55.2882 193.936 -54.0048 194.678L1.6491 112.145L-53.9981 34.6461Z" fill="#B9E4EF"/>
<path opacity="0.432" d="M-5.18004 109.983L-54.0273 194.645C-52.7442 195.388 -51.2887 195.779 -49.8069 195.78L34.0481 195.828C35.5298 195.829 36.9854 195.439 38.2687 194.699C39.5519 193.958 40.6175 192.892 41.3584 191.607L83.289 118.933C84.0303 117.649 84.4205 116.192 84.4205 114.709L-5.18004 109.983Z" fill="#93D8E4"/>
<path opacity="0.432" d="M84.4245 114.72C84.4246 113.236 84.0344 111.779 83.2933 110.495L41.3752 37.7815C40.6345 36.4969 39.5692 35.4298 38.2864 34.6876C37.0035 33.9454 35.5483 33.5542 34.067 33.5532L-49.7762 33.5051C-51.2576 33.5037 -52.7129 33.8932 -53.9956 34.6344L-7.85778 114.666L84.4245 114.72Z" fill="#DAF1F4"/>
</g>
<g opacity="0.311">
<path opacity="0.432" d="M361.002 25.635C359.719 26.3758 358.653 27.4421 357.912 28.7265L315.982 101.401C315.241 102.685 314.851 104.142 314.851 105.625C314.851 107.108 315.241 108.566 315.982 109.851L357.905 182.573C358.646 183.858 359.712 184.925 360.995 185.667L416.649 103.134L361.002 25.635Z" fill="#B9E4EF"/>
<path opacity="0.432" d="M409.82 100.972L360.973 185.634C362.256 186.377 363.711 186.768 365.193 186.769L449.048 186.817C450.53 186.818 451.985 186.428 453.269 185.687C454.552 184.947 455.618 183.88 456.358 182.596L498.289 109.922C499.03 108.638 499.421 107.181 499.42 105.698L409.82 100.972Z" fill="#93D8E4"/>
<path opacity="0.432" d="M499.425 105.708C499.425 104.225 499.034 102.768 498.293 101.483L456.375 28.7704C455.635 27.4858 454.569 26.4187 453.286 25.6765C452.004 24.9343 450.548 24.5431 449.067 24.5421L365.224 24.494C363.742 24.4926 362.287 24.8821 361.004 25.6233L407.142 105.655L499.425 105.708Z" fill="#DAF1F4"/>
</g>
<g opacity="0.311">
<path opacity="0.432" d="M148.002 -123.548C146.719 -122.808 145.653 -121.741 144.912 -120.457L102.982 -47.7826C102.241 -46.4985 101.851 -45.0416 101.851 -43.5583C101.851 -42.075 102.241 -40.6177 102.982 -39.3328L144.905 33.3893C145.646 34.6743 146.712 35.7415 147.995 36.4837L203.649 -46.0491L148.002 -123.548Z" fill="#B9E4EF"/>
<path opacity="0.432" d="M196.82 -48.2116L147.973 36.4507C149.256 37.1933 150.711 37.5847 152.193 37.5857L236.048 37.6334C237.53 37.6343 238.985 37.2448 240.269 36.5039C241.552 35.7631 242.618 34.697 243.358 33.4129L285.289 -39.2613C286.03 -40.5453 286.421 -42.0023 286.42 -43.4856L196.82 -48.2116Z" fill="#93D8E4"/>
</g>
</svg>
