<svg width="18" height="18" viewBox="0 0 18 18" fill="none" xmlns="http://www.w3.org/2000/svg">
<path d="M9 18C13.9706 18 18 13.9706 18 9C18 4.02944 13.9706 0 9 0C4.02944 0 0 4.02944 0 9C0 13.9706 4.02944 18 9 18Z" fill="white"/>
<path d="M9 17.5C13.6944 17.5 17.5 13.6944 17.5 9C17.5 4.30558 13.6944 0.5 9 0.5C4.30558 0.5 0.5 4.30558 0.5 9C0.5 13.6944 4.30558 17.5 9 17.5Z" stroke="#38B3E0"/>
<path d="M9.20705 6.03699C8.99705 6.09399 5.07905 10.165 5.07905 10.165C4.98993 10.8501 4.98993 11.5439 5.07905 12.229C5.76407 12.3196 6.45803 12.3196 7.14305 12.229C7.14305 12.229 11.2061 8.31799 11.2711 8.10099C10.727 7.28267 10.0254 6.581 9.20705 6.03699V6.03699Z" fill="#38B3E0"/>
<path d="M12.8764 5.6214L11.7415 4.48649C11.4729 4.21781 11.0372 4.21781 10.7686 4.48649C10.4999 4.75517 10.4999 5.19079 10.7686 5.45947L11.9035 6.59437C12.1721 6.86306 12.6078 6.86306 12.8764 6.59437C13.1451 6.32569 13.1451 5.89008 12.8764 5.6214Z" fill="#38B3E0"/>
<path d="M8.53809 12.1528H13.0411" stroke="#38B3E0" stroke-linecap="round"/>
</svg>
