<svg width="17" height="17" viewBox="0 0 17 17" fill="none" xmlns="http://www.w3.org/2000/svg">
<path d="M16.031 11.305V1.68301C16.0289 1.25931 15.8597 0.853564 15.56 0.55396C15.2604 0.254357 14.8547 0.0851106 14.431 0.0830078H4.809C4.3853 0.0851106 3.97956 0.254357 3.67995 0.55396C3.38035 0.853564 3.2111 1.25931 3.209 1.68301V11.302C3.2111 11.7257 3.38035 12.1315 3.67995 12.4311C3.97956 12.7307 4.3853 12.8999 4.809 12.902H14.428C14.8517 12.9007 15.2578 12.7322 15.5579 12.4332C15.8581 12.1341 16.0281 11.7287 16.031 11.305ZM7.214 8.09901L8.841 10.271L11.222 7.29701L14.428 11.305H4.809L7.214 8.09901ZM0 3.28901V14.511C0.00210276 14.9347 0.171349 15.3405 0.470953 15.6401C0.770556 15.9397 1.1763 16.1089 1.6 16.111H12.825V14.511H1.6V3.28901H0Z" fill="#38B3E0"/>
</svg>
