<svg width="21" height="20" viewBox="0 0 21 20" fill="none" xmlns="http://www.w3.org/2000/svg">
<path d="M5.60099 14.8991C5.32098 14.619 5.18097 14.3263 5.18097 14.0208C5.1937 13.7026 5.34007 13.4035 5.62008 13.1235L8.75115 9.99245L5.67736 6.91865C5.41007 6.65137 5.27007 6.37135 5.25734 6.07861C5.25734 5.77314 5.39098 5.48676 5.65827 5.21947C5.92555 4.95219 6.20557 4.82491 6.49831 4.83764C6.80378 4.83764 7.09016 4.97128 7.35745 5.23857L10.4312 8.31236L13.4668 5.27675C13.7469 4.99674 14.0396 4.85673 14.3451 4.85673C14.6505 4.85673 14.9497 5.0031 15.2424 5.29584C15.5224 5.57586 15.6561 5.86223 15.6433 6.15498C15.6433 6.46045 15.5033 6.75319 15.2233 7.0332L12.1877 10.0688L15.2615 13.1426C15.5415 13.4226 15.6751 13.709 15.6624 14.0017C15.6751 14.2945 15.5479 14.5745 15.2806 14.8418C15.0133 15.1091 14.7269 15.2427 14.4214 15.2427C14.1414 15.2427 13.8614 15.1027 13.5814 14.8227L10.5076 11.7489L7.37654 14.88C7.09652 15.16 6.79742 15.3064 6.47922 15.3191C6.18648 15.3318 5.89373 15.1918 5.60099 14.8991Z" fill="white"/>
</svg>
