<svg width="20" height="19" viewBox="0 0 20 19" fill="none" xmlns="http://www.w3.org/2000/svg">
<path d="M19.5021 9.43644C19.5052 11.1991 19.0098 12.9266 18.0733 14.4192C17.1368 15.9118 15.7973 17.1084 14.2099 17.8706C12.6225 18.6328 10.852 18.9294 9.10328 18.7262C7.35452 18.5231 5.69894 17.8283 4.32807 16.7224C4.22961 16.6429 4.149 16.5434 4.09152 16.4306C4.03403 16.3177 4.00096 16.194 3.99445 16.0675C3.98793 15.941 4.00814 15.8145 4.05373 15.6964C4.09933 15.5782 4.16929 15.471 4.25907 15.3818L4.68307 14.9572C4.83865 14.7988 5.04722 14.7035 5.2687 14.6896C5.49019 14.6758 5.70899 14.7443 5.88307 14.8821C6.92183 15.7062 8.17515 16.2142 9.49394 16.3456C10.8127 16.4771 12.1415 16.2265 13.3221 15.6237C14.5028 15.0209 15.4857 14.0912 16.1538 12.9452C16.822 11.7992 17.1473 10.4852 17.0911 9.15947C17.0349 7.83372 16.5995 6.55204 15.8368 5.46688C15.0741 4.38172 14.016 3.53875 12.7886 3.03826C11.5612 2.53777 10.216 2.40081 8.9131 2.64368C7.61018 2.88655 6.40436 3.49903 5.43907 4.40826L7.34807 6.31861C7.43297 6.40252 7.49096 6.50987 7.51463 6.62694C7.53831 6.74401 7.52659 6.86548 7.48097 6.97585C7.43535 7.08622 7.35791 7.18047 7.25853 7.24656C7.15916 7.31264 7.04236 7.34757 6.92307 7.34687H1.45707C1.29794 7.34687 1.14532 7.28358 1.0328 7.17092C0.92028 7.05826 0.857066 6.90546 0.857066 6.74613V1.2724C0.85637 1.15296 0.891253 1.03602 0.957259 0.93652C1.02326 0.837022 1.1174 0.759484 1.22763 0.713811C1.33786 0.668137 1.45919 0.656402 1.57612 0.680104C1.69304 0.703807 1.80026 0.76187 1.88407 0.846878L3.73807 2.70516C5.05708 1.44317 6.71692 0.596384 8.51194 0.269739C10.307 -0.0569071 12.1582 0.15094 13.8364 0.867527C15.5146 1.58411 16.9459 2.77795 17.953 4.3011C18.9601 5.82425 19.4987 7.60978 19.5021 9.43644ZM12.7021 12.4021L13.0711 11.9265C13.1441 11.833 13.1979 11.726 13.2295 11.6116C13.2611 11.4972 13.2698 11.3776 13.2551 11.2599C13.2405 11.1421 13.2027 11.0284 13.144 10.9252C13.0853 10.8221 13.0068 10.7316 12.9131 10.6589L11.3821 9.46848V5.53965C11.3821 5.30066 11.2872 5.07146 11.1185 4.90247C10.9497 4.73348 10.7208 4.63854 10.4821 4.63854H9.88207C9.64337 4.63854 9.41445 4.73348 9.24567 4.90247C9.07689 5.07146 8.98207 5.30066 8.98207 5.53965V10.6459L11.4411 12.5613C11.5345 12.6344 11.6414 12.6883 11.7556 12.7199C11.8699 12.7516 11.9893 12.7603 12.1069 12.7456C12.2245 12.7309 12.3381 12.6931 12.4411 12.6343C12.5441 12.5755 12.6345 12.4969 12.7071 12.4031L12.7021 12.4021Z" fill="white"/>
</svg>
